HIERARCHY
ROOT Hips
{
  OFFSET 91.2244 90.026 26.1335
  CHANNELS 6 Xposition Yposition Zposition Zrotation Xrotation Yrotation
  JOINT RightUpLeg
  {
    OFFSET -9.26543 -1.55198 -0.00276407
    CHANNELS 3 Zrotation Xrotation Yrotation
    JOINT RightLeg
    {
      OFFSET 0.00706465 -41.889 0.0798854
      CHANNELS 3 Zrotation Xrotation Yrotation
      JOINT RightFoot
      {
        OFFSET -1.51766 -41.6901 -0.263239
        CHANNELS 3 Zrotation Xrotation Yrotation
        End Site
        {
          OFFSET 0 -7.69 17.5
        }
      }
    }
  }
  JOINT LeftUpLeg
  {
    OFFSET 9.33035 -1.6331 0.002402
    CHANNELS 3 Zrotation Xrotation Yrotation
    JOINT LeftLeg
    {
      OFFSET 0.0774 -41.8788 0.006528
      CHANNELS 3 Zrotation Xrotation Yrotation
      JOINT LeftFoot
      {
        OFFSET 0.406189 -42.2791 -0.67832
        CHANNELS 3 Zrotation Xrotation Yrotation
        End Site
        {
          OFFSET 0 -7.69 17.5
        }
      }
    }
  }
  JOINT Spine
  {
    OFFSET 0.0210118 14.3125 0.030377
    CHANNELS 3 Zrotation Xrotation Yrotation
    JOINT Spine1
    {
      OFFSET -2.02627e-05 9.71981 0.0121962
      CHANNELS 3 Zrotation Xrotation Yrotation
      JOINT Spine2
      {
        OFFSET 0.023812 10.122 0.0180119
        CHANNELS 3 Zrotation Xrotation Yrotation
        JOINT Spine3
        {
          OFFSET 0.00443321 9.71861 0.0143853
          CHANNELS 3 Zrotation Xrotation Yrotation
          JOINT Neck
          {
            OFFSET -0.025003 10.3767 0.0233355
            CHANNELS 3 Zrotation Xrotation Yrotation
            JOINT Head
            {
              OFFSET -0.00975384 9.4764 0.045578
              CHANNELS 3 Zrotation Xrotation Yrotation
              End Site
              {
                OFFSET 0 15.95 0
              }
            }
          }
          JOINT RightShoulder
          {
            OFFSET -3.18407 6.9358 0.0313291
            CHANNELS 3 Zrotation Xrotation Yrotation
            JOINT RightArm
            {
              OFFSET -12.7601 0.0147069 0.0234973
              CHANNELS 3 Zrotation Xrotation Yrotation
              JOINT RightForeArm
              {
                OFFSET -26.4708 -0.032683 0.042111
                CHANNELS 3 Zrotation Xrotation Yrotation
                JOINT RightHand
                {
                  OFFSET -26.0234 -0.0283521 0.00388791
                  CHANNELS 3 Zrotation Xrotation Yrotation
                  JOINT RightHandThumb1
                  {
                    OFFSET -2.48905 0.190105 3.12053
                    CHANNELS 3 Zrotation Xrotation Yrotation
                    JOINT RightHandThumb2
                    {
                      OFFSET -3.68274 0 0
                      CHANNELS 3 Zrotation Xrotation Yrotation
                      JOINT RightHandThumb3
                      {
                        OFFSET -2.55832 0 0
                        CHANNELS 3 Zrotation Xrotation Yrotation
                        End Site
                        {
                          OFFSET -2.194 0 0
                        }
                      }
                    }
                  }
                  JOINT RightInHandIndex
                  {
                    OFFSET -3.22368 0.508421 1.97842
                    CHANNELS 3 Zrotation Xrotation Yrotation
                    JOINT RightHandIndex1
                    {
                      OFFSET -5.21684 -0.091368 0.999158
                      CHANNELS 3 Zrotation Xrotation Yrotation
                      JOINT RightHandIndex2
                      {
                        OFFSET -3.61937 0 0
                        CHANNELS 3 Zrotation Xrotation Yrotation
                        JOINT RightHandIndex3
                        {
                          OFFSET -2.0521 0 0
                          CHANNELS 3 Zrotation Xrotation Yrotation
                          End Site
                          {
                            OFFSET -1.805 0 0
                          }
                        }
                      }
                    }
                  }
                  JOINT RightInHandMiddle
                  {
                    OFFSET -3.38211 0.517263 0.756737
                    CHANNELS 3 Zrotation Xrotation Yrotation
                    JOINT RightHandMiddle1
                    {
                      OFFSET -5.17411 -0.084 0.313895
                      CHANNELS 3 Zrotation Xrotation Yrotation
                      JOINT RightHandMiddle2
                      {
                        OFFSET -3.94947 0 0
                        CHANNELS 3 Zrotation Xrotation Yrotation
                        JOINT RightHandMiddle3
                        {
                          OFFSET -2.47579 0 0
                          CHANNELS 3 Zrotation Xrotation Yrotation
                          End Site
                          {
                            OFFSET -1.975 0 0
                          }
                        }
                      }
                    }
                  }
                  JOINT RightInHandRing
                  {
                    OFFSET -3.36516 0.537895 -0.128947
                    CHANNELS 3 Zrotation Xrotation Yrotation
                    JOINT RightHandRing1
                    {
                      OFFSET -4.63474 -0.022105 -0.478947
                      CHANNELS 3 Zrotation Xrotation Yrotation
                      JOINT RightHandRing2
                      {
                        OFFSET -3.44238 0 0
                        CHANNELS 3 Zrotation Xrotation Yrotation
                        JOINT RightHandRing3
                        {
                          OFFSET -2.3881 0 0
                          CHANNELS 3 Zrotation Xrotation Yrotation
                          End Site
                          {
                            OFFSET -1.857 0 0
                          }
                        }
                      }
                    }
                  }
                  JOINT RightInHandPinky
                  {
                    OFFSET -3.16105 0.469368 -1.20179
                    CHANNELS 3 Zrotation Xrotation Yrotation
                    JOINT RightHandPinky1
                    {
                      OFFSET -4.14105 -0.022105 -1.09053
                      CHANNELS 3 Zrotation Xrotation Yrotation
                      JOINT RightHandPinky2
                      {
                        OFFSET -2.75653 0 0
                        CHANNELS 3 Zrotation Xrotation Yrotation
                        JOINT RightHandPinky3
                        {
                          OFFSET -1.74189 0 0
                          CHANNELS 3 Zrotation Xrotation Yrotation
                          End Site
                          {
                            OFFSET -1.645 0 0
                          }
                        }
                      }
                    }
                  }
                }
              }
            }
          }
          JOINT LeftShoulder
          {
            OFFSET 3.21192 6.92101 0.01407
            CHANNELS 3 Zrotation Xrotation Yrotation
            JOINT LeftArm
            {
              OFFSET 12.7303 -0.00466279 0.011464
              CHANNELS 3 Zrotation Xrotation Yrotation
              JOINT LeftForeArm
              {
                OFFSET 26.497 -0.127446 0.0273404
                CHANNELS 3 Zrotation Xrotation Yrotation
                JOINT LeftHand
                {
                  OFFSET 26.0093 -0.0453415 -0.0774742
                  CHANNELS 3 Zrotation Xrotation Yrotation
                  JOINT LeftHandThumb1
                  {
                    OFFSET 2.48905 0.190105 3.12053
                    CHANNELS 3 Zrotation Xrotation Yrotation
                    JOINT LeftHandThumb2
                    {
                      OFFSET 3.68274 0 0
                      CHANNELS 3 Zrotation Xrotation Yrotation
                      JOINT LeftHandThumb3
                      {
                        OFFSET 2.55832 0 0
                        CHANNELS 3 Zrotation Xrotation Yrotation
                        End Site
                        {
                          OFFSET 2.194 0 0
                        }
                      }
                    }
                  }
                  JOINT LeftInHandIndex
                  {
                    OFFSET 3.22368 0.508421 1.97842
                    CHANNELS 3 Zrotation Xrotation Yrotation
                    JOINT LeftHandIndex1
                    {
                      OFFSET 5.21684 -0.091368 0.999158
                      CHANNELS 3 Zrotation Xrotation Yrotation
                      JOINT LeftHandIndex2
                      {
                        OFFSET 3.61937 0 0
                        CHANNELS 3 Zrotation Xrotation Yrotation
                        JOINT LeftHandIndex3
                        {
                          OFFSET 2.0521 0 0
                          CHANNELS 3 Zrotation Xrotation Yrotation
                          End Site
                          {
                            OFFSET 1.805 0 0
                          }
                        }
                      }
                    }
                  }
                  JOINT LeftInHandMiddle
                  {
                    OFFSET 3.38211 0.517263 0.756737
                    CHANNELS 3 Zrotation Xrotation Yrotation
                    JOINT LeftHandMiddle1
                    {
                      OFFSET 5.17411 -0.084 0.313895
                      CHANNELS 3 Zrotation Xrotation Yrotation
                      JOINT LeftHandMiddle2
                      {
                        OFFSET 3.94947 0 0
                        CHANNELS 3 Zrotation Xrotation Yrotation
                        JOINT LeftHandMiddle3
                        {
                          OFFSET 2.47579 0 0
                          CHANNELS 3 Zrotation Xrotation Yrotation
                          End Site
                          {
                            OFFSET 1.975 0 0
                          }
                        }
                      }
                    }
                  }
                  JOINT LeftInHandRing
                  {
                    OFFSET 3.36516 0.537895 -0.128947
                    CHANNELS 3 Zrotation Xrotation Yrotation
                    JOINT LeftHandRing1
                    {
                      OFFSET 4.63474 -0.022105 -0.478947
                      CHANNELS 3 Zrotation Xrotation Yrotation
                      JOINT LeftHandRing2
                      {
                        OFFSET 3.44238 0 0
                        CHANNELS 3 Zrotation Xrotation Yrotation
                        JOINT LeftHandRing3
                        {
                          OFFSET 2.3881 0 0
                          CHANNELS 3 Zrotation Xrotation Yrotation
                          End Site
                          {
                            OFFSET 1.857 0 0
                          }
                        }
                      }
                    }
                  }
                  JOINT LeftInHandPinky
                  {
                    OFFSET 3.16105 0.469368 -1.20179
                    CHANNELS 3 Zrotation Xrotation Yrotation
                    JOINT LeftHandPinky1
                    {
                      OFFSET 4.14105 -0.022105 -1.09053
                      CHANNELS 3 Zrotation Xrotation Yrotation
                      JOINT LeftHandPinky2
                      {
                        OFFSET 2.75653 0 0
                        CHANNELS 3 Zrotation Xrotation Yrotation
                        JOINT LeftHandPinky3
                        {
                          OFFSET 1.74189 0 0
                          CHANNELS 3 Zrotation Xrotation Yrotation
                          End Site
                          {
                            OFFSET 1.645 0 0
                          }
                        }
                      }
                    }
                  }
                }
              }
            }
          }
        }
      }
    }
  }
}
MOTION
Frames: 3
Frame Time: 0.00833333
1.597931900000000041e+03 8.935779999999999745e+01 2.747040000000000148e+01 2.232049999999999912e+01 -2.346460000000000079e+01 -1.411370000000000289e+02 -1.985810000000000386e+01 -5.659020000000001005e+01 -1.875349999999999895e+01 5.501049999999999329e+00 2.263620000000000232e+01 5.981679999999999886e+00 8.955760000000001497e+00 3.332080000000000375e+00 1.105109999999999815e+00 2.892730000000000246e+01 -4.791450000000000387e+01 3.966349999999999909e+01 -1.380669999999999842e+00 1.968949999999999534e+01 -2.434369999999999479e+01 -7.241769999999999818e+00 8.294679999999999831e-01 3.392320000000000135e+01 -1.929510000000000280e+00 1.054920000000000080e+01 5.695210000000000328e+00 -3.815830000000000055e-01 2.744310000000000471e+00 1.403709999999999791e+00 -6.678439999999999932e-01 4.584220000000000184e+00 2.359570000000000611e+00 4.783749999999999947e-01 1.906370000000000009e-01 -8.726429999999998355e-01 4.803810000000000580e-01 1.994360000000000022e-01 -8.772569999999999535e-01 9.346669999999999590e+00 3.315010000000000012e+00 -1.636779999999999546e+01 -2.167040000000000077e+00 -2.965489999999999959e+00 1.058799999999999919e+01 7.634510000000000218e+01 8.319729999999999848e+00 7.218129999999997892e+01 -6.012729999999999464e+00 -1.954709999999999681e+01 -1.866360000000000241e+01 4.971630000000001104e+00 -2.950900000000000034e+01 1.319459999999999855e+00 2.818400000000000105e+01 1.072940000000000005e+01 1.915919999999999845e+01 -3.633319999999998857e-15 0.000000000000000000e+00 -1.000000000000000000e+01 -8.074049999999997161e-15 0.000000000000000000e+00 -1.000000000000000000e+01 7.951389999999997254e-16 3.180549999999999587e-15 -3.975689999999996569e-16 1.998179999999999978e+01 8.718970000000000331e-01 2.396399999999999864e+00 2.400000000000000000e+01 0.000000000000000000e+00 6.361109999999999741e-15 2.000000000000000000e+01 -7.951389999999995282e-16 -6.361109999999996586e-15 7.951389999999997254e-16 3.180549999999999587e-15 -3.975689999999996569e-16 2.000000000000000000e+01 -4.770830000000000256e-15 0.000000000000000000e+00 2.400000000000000000e+01 -3.180550000000000376e-15 0.000000000000000000e+00 2.000000000000000000e+01 2.385420000000000411e-15 9.541660000000000512e-15 7.951389999999997254e-16 3.180549999999999587e-15 -3.975689999999996569e-16 1.997479999999999833e+01 -1.025649999999999951e+00 -2.819380000000000219e+00 2.400000000000000000e+01 -3.180549999999999982e-15 -3.180550000000000771e-15 2.000000000000000000e+01 -1.192710000000000403e-15 3.180550000000000771e-15 7.951389999999997254e-16 3.180549999999999587e-15 -3.975689999999996569e-16 1.978150000000000119e+01 -3.009479999999999933e+00 -8.305149999999999366e+00 2.400000000000000000e+01 3.180549999999999193e-15 -6.361109999999999741e-15 2.000000000000000000e+01 7.951389999999999226e-16 -3.180550000000000771e-15 -7.925810000000000244e+00 -8.142310000000000159e+00 -2.117490000000000094e+01 -4.396139999999999759e+01 3.184740000000000038e+01 -5.631280000000000285e+01 -4.761919999999999931e+01 -8.601199999999998624e+01 -4.871490000000000009e+01 -7.903079999999999217e+00 -7.127110000000001833e+01 -4.117820000000000036e+00 -2.818400000000000105e+01 1.072940000000000005e+01 -1.915919999999999845e+01 -4.912070000000002527e-15 9.541660000000000512e-15 1.000000000000000000e+01 3.790440000000000116e-15 -3.180549999999999982e-15 1.000000000000000000e+01 6.361109999999999741e-15 -3.180550000000000771e-15 0.000000000000000000e+00 -1.998179999999999978e+01 8.718970000000000331e-01 -2.396399999999999864e+00 -2.400000000000000000e+01 -1.590280000000000274e-15 3.180549999999999982e-15 -2.000000000000000000e+01 -7.578670000000003693e-16 1.590280000000000747e-14 6.361109999999999741e-15 -3.180550000000000771e-15 0.000000000000000000e+00 -2.000000000000000000e+01 0.000000000000000000e+00 3.180550000000000771e-15 -2.400000000000000000e+01 -1.590280000000001063e-15 6.361109999999998163e-15 -2.000000000000000000e+01 -7.951389999999999226e-15 1.272219999999999993e-14 6.361109999999999741e-15 -3.180550000000000771e-15 0.000000000000000000e+00 -1.997479999999999833e+01 -1.025649999999999951e+00 2.819380000000000219e+00 -2.400000000000000000e+01 -9.541660000000000512e-15 9.541660000000000512e-15 -2.000000000000000000e+01 -7.951389999999997649e-15 9.541660000000003667e-15 6.361109999999999741e-15 -3.180550000000000771e-15 0.000000000000000000e+00 -1.978150000000000119e+01 -3.009479999999999933e+00 8.305149999999999366e+00 -2.400000000000000000e+01 8.746530000000000547e-15 6.361109999999999741e-15 -2.000000000000000000e+01 -3.975689999999998936e-15 6.361109999999999741e-15
1.597935999999999694e+03 8.935399999999998499e+01 2.746769999999999712e+01 2.231389999999999674e+01 -2.346790000000000020e+01 -1.411500000000000057e+02 -1.982310000000000016e+01 -5.661319999999999908e+01 -1.872040000000000148e+01 5.485140000000001237e+00 2.265660000000000096e+01 6.010500000000000398e+00 8.954650000000002663e+00 3.330709999999999393e+00 1.078699999999999992e+00 2.896290000000000120e+01 -4.789650000000000318e+01 3.971050000000000324e+01 -1.383620000000000072e+00 1.970589999999999975e+01 -2.433850000000000335e+01 -7.251450000000000173e+00 8.104409999999999670e-01 3.390199999999999392e+01 -1.931069999999999842e+00 1.053820000000000157e+01 5.693399999999999572e+00 -3.831410000000000093e-01 2.741579999999999906e+00 1.403739999999999988e+00 -6.703869999999999552e-01 4.581550000000000011e+00 2.359519999999999840e+00 4.781960000000000655e-01 1.908849999999999991e-01 -8.722790000000001376e-01 4.801910000000000345e-01 1.990740000000000010e-01 -8.768860000000001653e-01 9.331139999999999546e+00 3.331900000000000528e+00 -1.635470000000000468e+01 -2.140150000000000219e+00 -2.935090000000000643e+00 1.060880000000000045e+01 7.634880000000001132e+01 8.296469999999999345e+00 7.216610000000000014e+01 -5.998339999999998895e+00 -1.950829999999999842e+01 -1.862349999999999994e+01 4.963280000000001024e+00 -2.951520000000000010e+01 1.299689999999999790e+00 2.818400000000000105e+01 1.072940000000000005e+01 1.915919999999999845e+01 3.229620000000001783e-15 0.000000000000000000e+00 -1.000000000000000000e+01 1.614810000000001483e-15 0.000000000000000000e+00 -1.000000000000000000e+01 -4.969619999999997319e-16 3.180549999999999587e-15 7.951389999999999226e-16 1.998179999999999978e+01 8.718970000000000331e-01 2.396399999999999864e+00 2.400000000000000000e+01 -1.590279999999999682e-15 1.590279999999999485e-15 2.000000000000000000e+01 -1.590280000000000274e-15 3.180549999999999193e-15 -4.969619999999997319e-16 3.180549999999999587e-15 7.951389999999999226e-16 2.000000000000000000e+01 3.180550000000000376e-15 1.590280000000000274e-15 2.400000000000000000e+01 -1.590279999999999485e-15 3.180550000000000376e-15 2.000000000000000000e+01 4.770830000000000256e-15 -3.180550000000000771e-15 -4.969619999999997319e-16 3.180549999999999587e-15 7.951389999999999226e-16 1.997479999999999833e+01 -1.025649999999999951e+00 -2.819380000000000219e+00 2.400000000000000000e+01 -1.590280000000000668e-15 -6.361109999999999741e-15 2.000000000000000000e+01 0.000000000000000000e+00 0.000000000000000000e+00 -4.969619999999997319e-16 3.180549999999999587e-15 7.951389999999999226e-16 1.978150000000000119e+01 -3.009479999999999933e+00 -8.305149999999999366e+00 2.400000000000000000e+01 0.000000000000000000e+00 -3.180550000000000771e-15 2.000000000000000000e+01 -7.951389999999999226e-16 0.000000000000000000e+00 -7.923459999999999503e+00 -8.126560000000001338e+00 -2.115620000000000189e+01 -4.396250000000000568e+01 3.184919999999999973e+01 -5.631260000000001043e+01 -4.761690000000000111e+01 -8.601300000000000523e+01 -4.871320000000000050e+01 -7.966590000000000060e+00 -7.127469999999999573e+01 -4.188809999999998368e+00 -2.818400000000000105e+01 1.072940000000000005e+01 -1.915919999999999845e+01 -4.255319999999992792e-16 -1.590280000000000116e-14 1.000000000000000000e+01 -8.006410000000001450e-15 -9.541659999999998934e-15 1.000000000000000000e+01 3.180549999999999982e-15 0.000000000000000000e+00 -4.770830000000000256e-15 -1.998179999999999978e+01 8.718970000000000331e-01 -2.396399999999999864e+00 -2.400000000000000000e+01 4.770830000000000256e-15 9.541660000000000512e-15 -2.000000000000000000e+01 -2.907229999999998925e-15 -1.590280000000000116e-14 3.180549999999999982e-15 0.000000000000000000e+00 -4.770830000000000256e-15 -2.000000000000000000e+01 3.180550000000001560e-15 -3.180549999999999982e-15 -2.400000000000000000e+01 -4.770830000000000256e-15 0.000000000000000000e+00 -2.000000000000000000e+01 3.578119999999999853e-15 -9.541660000000003667e-15 3.180549999999999982e-15 0.000000000000000000e+00 -4.770830000000000256e-15 -1.997479999999999833e+01 -1.025649999999999951e+00 2.819380000000000219e+00 -2.400000000000000000e+01 -4.770830000000000256e-15 3.180550000000000771e-15 -2.000000000000000000e+01 2.782990000000000282e-15 -9.541660000000002090e-15 3.180549999999999982e-15 0.000000000000000000e+00 -4.770830000000000256e-15 -1.978150000000000119e+01 -3.009479999999999933e+00 8.305149999999999366e+00 -2.400000000000000000e+01 -7.156249999999997906e-15 9.541659999999997356e-15 -2.000000000000000000e+01 -2.385420000000000017e-15 -1.590280000000000116e-14
1.597939699999999903e+03 8.935169999999999391e+01 2.746480000000000032e+01 2.230510000000000304e+01 -2.347260000000000346e+01 -1.411680000000000632e+02 -1.979530000000000101e+01 -5.663730000000000331e+01 -1.867589999999999861e+01 5.475089999999999790e+00 2.268009999999999948e+01 6.023369999999999003e+00 8.952630000000000976e+00 3.327129999999999921e+00 1.056899999999999951e+00 2.899830000000000041e+01 -4.787819999999999965e+01 3.975800000000000978e+01 -1.387880000000000003e+00 1.971829999999999927e+01 -2.433439999999999870e+01 -7.263760000000001327e+00 7.924090000000001410e-01 3.388819999999999766e+01 -1.933049999999999491e+00 1.052829999999999977e+01 5.685539999999999594e+00 -3.847160000000000579e-01 2.738500000000000156e+00 1.403779999999999806e+00 -6.730159999999999476e-01 4.577130000000000365e+00 2.359449999999999825e+00 4.780150000000000232e-01 1.911289999999999933e-01 -8.719019999999999548e-01 4.799999999999999822e-01 1.987329999999999930e-01 -8.765020000000001144e-01 9.310769999999999769e+00 3.357550000000000257e+00 -1.633099999999999596e+01 -2.108740000000000059e+00 -2.904209999999999958e+00 1.062199999999999989e+01 7.632529999999999859e+01 8.284790000000000987e+00 7.215560000000000684e+01 -5.988569999999999283e+00 -1.946180000000000021e+01 -1.859019999999999939e+01 4.974619999999998932e+00 -2.953529999999999944e+01 1.283420000000000227e+00 2.818400000000000105e+01 1.072940000000000005e+01 1.915919999999999845e+01 2.769730000000001325e-15 -3.180549999999999587e-15 -1.000000000000000000e+01 -1.081049999999999847e-14 -6.361109999999999741e-15 -1.000000000000000000e+01 -8.945310000000005721e-16 0.000000000000000000e+00 -3.975690000000000513e-16 1.998179999999999978e+01 8.718970000000000331e-01 2.396399999999999864e+00 2.400000000000000000e+01 1.590280000000000274e-15 1.113189999999999931e-14 2.000000000000000000e+01 7.951389999999999226e-16 -3.180549999999999193e-15 -8.945310000000005721e-16 0.000000000000000000e+00 -3.975690000000000513e-16 2.000000000000000000e+01 7.951389999999999226e-15 1.590279999999999485e-15 2.400000000000000000e+01 1.590280000000000274e-15 4.770830000000001834e-15 2.000000000000000000e+01 -1.590279999999999485e-15 3.180549999999999982e-15 -8.945310000000005721e-16 0.000000000000000000e+00 -3.975690000000000513e-16 1.997479999999999833e+01 -1.025649999999999951e+00 -2.819380000000000219e+00 2.400000000000000000e+01 1.590280000000000274e-15 0.000000000000000000e+00 2.000000000000000000e+01 3.578119999999999853e-15 1.908329999999999831e-14 -8.945310000000005721e-16 0.000000000000000000e+00 -3.975690000000000513e-16 1.978150000000000119e+01 -3.009479999999999933e+00 -8.305149999999999366e+00 2.400000000000000000e+01 0.000000000000000000e+00 6.361109999999999741e-15 2.000000000000000000e+01 -7.951389999999999226e-16 0.000000000000000000e+00 -7.928469999999999906e+00 -8.112890000000000157e+00 -2.113060000000000116e+01 -4.396280000000000854e+01 3.184959999999999880e+01 -5.631199999999999051e+01 -4.761699999999999022e+01 -8.601300000000000523e+01 -4.871319999999999339e+01 -8.069269999999999499e+00 -7.127950000000001296e+01 -4.290029999999999788e+00 -2.818400000000000105e+01 1.072940000000000005e+01 -1.915919999999999845e+01 1.682449999999998772e-15 -9.541660000000000512e-15 1.000000000000000000e+01 0.000000000000000000e+00 0.000000000000000000e+00 1.000000000000000000e+01 -1.590280000000000274e-15 -3.180549999999999193e-15 -6.361109999999999741e-15 -1.998179999999999978e+01 8.718970000000000331e-01 -2.396399999999999864e+00 -2.400000000000000000e+01 -3.180549999999999982e-15 1.272219999999999993e-14 -2.000000000000000000e+01 -3.640239999999998583e-15 6.361109999999999741e-15 -1.590280000000000274e-15 -3.180549999999999193e-15 -6.361109999999999741e-15 -2.000000000000000000e+01 -6.361110000000001319e-15 -6.361110000000000530e-15 -2.400000000000000000e+01 3.180549999999999982e-15 0.000000000000000000e+00 -2.000000000000000000e+01 -1.987850000000000145e-15 3.180550000000000771e-15 -1.590280000000000274e-15 -3.180549999999999193e-15 -6.361109999999999741e-15 -1.997479999999999833e+01 -1.025649999999999951e+00 2.819380000000000219e+00 -2.400000000000000000e+01 0.000000000000000000e+00 6.361109999999998163e-15 -2.000000000000000000e+01 -9.541660000000000512e-15 -6.361110000000002108e-15 -1.590280000000000274e-15 -3.180549999999999193e-15 -6.361109999999999741e-15 -1.978150000000000119e+01 -3.009479999999999933e+00 8.305149999999999366e+00 -2.400000000000000000e+01 0.000000000000000000e+00 3.180550000000000771e-15 -2.000000000000000000e+01 3.180549999999999982e-15 3.180550000000000771e-15
